<svg width="602" height="349" viewBox="0 0 602 349" fill="none" xmlns="http://www.w3.org/2000/svg">
<rect x="51" y="178.912" width="134" height="125" fill="url(#paint0_linear_22_127)"/>
<path d="M184.511 163.521C184.492 166.263 182.267 168.477 179.525 168.485L28.1557 168.88C23.6893 168.891 21.4498 163.487 24.6154 160.336L177.082 8.57548C180.248 5.42458 185.642 7.68917 185.61 12.1555L184.511 163.521Z" fill="url(#paint1_linear_22_127)"/>
<path d="M101.5 160.912V168.912" stroke="white"/>
<path d="M195.478 168.027L357.614 169.176L195.027 5.88671L195.478 168.027Z" fill="url(#paint2_linear_22_127)"/>
<path d="M167.632 147.15C167.587 149.856 165.398 152.034 162.693 152.067L66.9395 153.21C62.4508 153.263 60.1709 147.833 63.3525 144.666L160.693 47.7766C163.875 44.6098 169.294 46.9148 169.22 51.4032L167.632 147.15Z" fill="white"/>
<rect x="196" y="178.912" width="41" height="20" fill="url(#paint3_linear_22_127)"/>
<rect x="195" y="232" width="41" height="19" fill="url(#paint4_linear_22_127)"/>
<rect x="195" y="283.912" width="41" height="20" fill="url(#paint5_linear_22_127)"/>
<rect x="245" y="178.912" width="41" height="20" fill="url(#paint6_linear_22_127)"/>
<rect x="244" y="232" width="41" height="19" fill="url(#paint7_linear_22_127)"/>
<rect x="244" y="283.912" width="41" height="20" fill="url(#paint8_linear_22_127)"/>
<rect x="294" y="178.912" width="41" height="20" fill="url(#paint9_linear_22_127)"/>
<rect x="293" y="232" width="41" height="19" fill="url(#paint10_linear_22_127)"/>
<rect x="293" y="283.912" width="41" height="20" fill="url(#paint11_linear_22_127)"/>
<rect x="270" y="204.912" width="41" height="20" fill="url(#paint12_linear_22_127)"/>
<rect x="269" y="257.912" width="41" height="20" fill="url(#paint13_linear_22_127)"/>
<rect x="220" y="204.912" width="41" height="20" fill="url(#paint14_linear_22_127)"/>
<rect x="219" y="257.912" width="41" height="20" fill="url(#paint15_linear_22_127)"/>
<rect x="319" y="204.912" width="15" height="20" fill="url(#paint16_linear_22_127)"/>
<rect x="318" y="257.912" width="15" height="20" fill="url(#paint17_linear_22_127)"/>
<rect x="196" y="204.912" width="15" height="20" fill="url(#paint18_linear_22_127)"/>
<rect x="195" y="257.912" width="15" height="20" fill="url(#paint19_linear_22_127)"/>
<line x1="93.5" y1="160.912" x2="93.5" y2="168.912" stroke="white"/>
<path d="M85.5 160.912V168.912M77.5 160.912V168.912M69.5 160.912V168.912M61.5 160.912V168.912M53.5 160.912V168.912M45.5 160.912V168.912M37.5 160.912V168.912" stroke="white"/>
<line x1="109.5" y1="160.912" x2="109.5" y2="168.912" stroke="white"/>
<line x1="117.5" y1="160.912" x2="117.5" y2="168.912" stroke="white"/>
<line x1="125.5" y1="160.912" x2="125.5" y2="168.912" stroke="white"/>
<line x1="133.5" y1="160.912" x2="133.5" y2="168.912" stroke="white"/>
<line x1="173.5" y1="160.912" x2="173.5" y2="168.912" stroke="white"/>
<line x1="165.5" y1="160.912" x2="165.5" y2="168.912" stroke="white"/>
<line x1="157.5" y1="160.912" x2="157.5" y2="168.912" stroke="white"/>
<line x1="141.5" y1="160.912" x2="141.5" y2="168.912" stroke="white"/>
<line x1="149.5" y1="160.912" x2="149.5" y2="168.912" stroke="white"/>
<path d="M242.637 78.3794C242.783 78.3335 242.931 78.2889 243.076 78.2452C246.268 77.2905 249.478 76.9323 252.309 77.2696C242.011 81.6183 234.965 91.3134 242.138 97.4871C242.522 97.8178 242.904 98.1405 243.282 98.4627L243.23 98.5048C243.444 98.7708 243.509 99.1393 243.314 99.8015C243.12 100.464 242.631 101.297 241.97 102.026C241.308 102.755 240.478 103.384 239.698 103.744C238.973 104.08 238.333 104.167 237.855 104.056C237.533 103.783 237.208 103.508 236.879 103.232C233.799 103.005 230.032 106.988 229.814 109.516C229.079 107.773 227.801 105.998 226.08 104.42C224.773 103.222 223.377 102.284 221.993 101.647C224.845 101.758 225.514 99.5983 225.498 95.7962C225.482 92.139 228.204 88.3674 230.452 85.926C233.686 82.4186 238.123 79.8079 242.637 78.3796L242.637 78.3794ZM217.335 103.285C217.839 103.121 218.567 103.113 219.523 103.368C220.98 103.756 222.777 104.747 224.409 106.244C226.041 107.74 227.182 109.446 227.695 110.865C228.208 112.284 228.066 113.226 227.654 113.676C227.242 114.127 226.311 114.353 224.854 113.965C223.397 113.577 221.601 112.589 219.969 111.093C218.338 109.596 217.196 107.89 216.683 106.471C216.17 105.052 216.311 104.106 216.723 103.656C216.826 103.544 216.963 103.445 217.131 103.367C217.194 103.338 217.262 103.309 217.335 103.285ZM245.695 100.492C267.801 118.842 279.518 122.314 279.053 128.578C278.84 131.45 276.531 134.421 273.232 134.409C266.381 134.384 261.923 124.923 240.321 106.173C240.461 106.118 240.6 106.058 240.737 105.994C241.889 105.461 242.935 104.64 243.799 103.688C244.662 102.737 245.35 101.657 245.689 100.502C245.691 100.499 245.694 100.495 245.695 100.492L245.695 100.492ZM211.549 121.274L226.376 119.715L220.521 123.717L222.48 143.776L220.017 144.019L218.062 123.976L211.549 121.274ZM237.43 115.319L250.684 122.16L243.589 122.288L237.688 133.528L243.986 143.33L241.903 144.668L236.368 136.049L234.224 140.126L232.037 138.976L234.829 133.657L231.012 127.711L223.936 128.198L236.54 120.233L233.106 126.391L236.154 131.135L241.394 121.154L237.43 115.319L237.43 115.319Z" fill="white" fill-opacity="0.98"/>
<path d="M150.297 269.395C150.309 268.804 150.204 268.124 149.958 267.354C149.899 267.227 145.152 256.809 139.972 246.32C137.367 241.043 134.66 235.768 132.421 231.843C131.302 229.881 130.296 228.253 129.509 227.165C129.115 226.62 128.771 226.21 128.543 225.989C128.47 225.918 128.444 225.917 128.404 225.899C125.8 226.013 121.932 228.152 118.851 230.439C118.089 231.006 117.341 231.592 116.61 232.198L118.883 234.494L118.97 234.65C118.97 234.65 119.595 235.77 120.055 237.112C120.285 237.783 120.485 238.516 120.527 239.287C120.569 240.057 120.454 240.982 119.746 241.684C119.04 242.385 118.116 242.494 117.348 242.446C116.58 242.398 115.851 242.194 115.184 241.96C113.849 241.492 112.738 240.86 112.738 240.86L112.581 240.772L110.289 238.456C109.676 239.182 109.082 239.924 108.508 240.68C106.19 243.738 104.013 247.585 103.873 250.187C103.891 250.227 103.891 250.254 103.961 250.328C104.181 250.558 104.587 250.906 105.128 251.305C106.208 252.103 107.826 253.125 109.777 254.264C113.679 256.541 118.928 259.301 124.178 261.958C134.615 267.242 144.986 272.093 145.112 272.152C147.187 272.84 148.614 272.459 149.422 271.659C149.932 271.154 150.278 270.403 150.298 269.395L150.297 269.395ZM117.952 239.557C117.952 239.518 117.951 239.475 117.949 239.427C117.928 239.045 117.796 238.487 117.612 237.949C117.285 236.994 116.88 236.226 116.781 236.041L111.38 230.586L108.729 233.21L114.147 238.682C114.755 239.011 115.387 239.292 116.038 239.522C116.572 239.71 117.127 239.845 117.507 239.868C117.763 239.884 117.879 239.851 117.917 239.841C117.926 239.809 117.95 239.729 117.951 239.557L117.952 239.557ZM117.917 239.842C117.912 239.86 117.911 239.867 117.927 239.852C117.942 239.836 117.936 239.837 117.917 239.842ZM109.563 228.751L108.149 227.324L105.499 229.948L106.912 231.375L109.563 228.751L109.563 228.751ZM108.14 223.699L94.4975 208.538L86.8492 216.11L101.874 229.903L108.14 223.699ZM92.768 206.616L91.515 205.223C91.3404 205.048 91.1791 204.975 90.865 204.952C90.548 204.93 90.0854 205.002 89.5493 205.205C88.477 205.611 87.1515 206.524 86.0301 207.634C84.9087 208.745 83.9829 210.061 83.5658 211.129C83.3575 211.663 83.2806 212.125 83.3002 212.442C83.3196 212.757 83.3914 212.919 83.5645 213.095L84.9447 214.362L92.7683 206.616L92.768 206.616Z" fill="white" fill-opacity="0.95"/>
<path d="M361.76 269.8C359.147 269.8 356.827 269.533 354.8 269C352.827 268.467 351.173 267.693 349.84 266.68C348.507 265.667 347.493 264.467 346.8 263.08C346.16 261.693 345.84 260.173 345.84 258.52C345.84 257.453 346.053 256.52 346.48 255.72C346.96 254.92 347.627 254.307 348.48 253.88C349.333 253.4 350.373 253.16 351.6 253.16C351.707 255.347 352.133 257.427 352.88 259.4C353.627 261.32 354.773 262.893 356.32 264.12C357.867 265.293 359.893 265.88 362.4 265.88C365.973 265.88 368.773 265.027 370.8 263.32C372.827 261.56 373.84 259.053 373.84 255.8C373.84 253.827 373.44 252.173 372.64 250.84C371.893 249.453 370.613 248.173 368.8 247C367.04 245.827 364.587 244.6 361.44 243.32C358.133 241.933 355.387 240.44 353.2 238.84C351.013 237.24 349.387 235.373 348.32 233.24C347.253 231.053 346.72 228.493 346.72 225.56C346.72 222.52 347.467 219.933 348.96 217.8C350.507 215.613 352.587 213.96 355.2 212.84C357.867 211.667 360.88 211.08 364.24 211.08C367.44 211.08 370.133 211.507 372.32 212.36C374.56 213.213 376.267 214.333 377.44 215.72C378.613 217.053 379.2 218.493 379.2 220.04C379.2 221.747 378.613 223.053 377.44 223.96C376.32 224.813 374.8 225.24 372.88 225.24C372.88 223.587 372.587 221.987 372 220.44C371.467 218.893 370.533 217.613 369.2 216.6C367.92 215.587 366.16 215.08 363.92 215.08C360.827 215.08 358.427 215.907 356.72 217.56C355.013 219.213 354.16 221.427 354.16 224.2C354.16 226.333 354.533 228.147 355.28 229.64C356.08 231.08 357.387 232.387 359.2 233.56C361.013 234.68 363.467 235.88 366.56 237.16C369.707 238.44 372.373 239.853 374.56 241.4C376.8 242.893 378.507 244.627 379.68 246.6C380.853 248.573 381.44 250.947 381.44 253.72C381.44 257.133 380.64 260.04 379.04 262.44C377.44 264.787 375.147 266.6 372.16 267.88C369.227 269.16 365.76 269.8 361.76 269.8ZM425.596 269.8C419.409 269.8 414.262 268.573 410.156 266.12C406.102 263.667 403.062 260.253 401.036 255.88C399.062 251.453 398.076 246.28 398.076 240.36C398.076 234.6 399.116 229.533 401.196 225.16C403.329 220.733 406.476 217.293 410.636 214.84C414.796 212.333 419.942 211.08 426.076 211.08C430.022 211.08 433.302 211.48 435.916 212.28C438.529 213.027 440.476 214.093 441.756 215.48C443.089 216.813 443.756 218.333 443.756 220.04C443.756 221.747 443.036 223.107 441.596 224.12C440.156 225.133 438.396 225.64 436.316 225.64C436.316 223.987 435.969 222.387 435.276 220.84C434.636 219.24 433.542 217.933 431.996 216.92C430.449 215.853 428.369 215.32 425.756 215.32C421.222 215.32 417.569 216.307 414.796 218.28C412.076 220.2 410.076 223.027 408.796 226.76C407.569 230.493 406.956 235.027 406.956 240.36C406.956 245.693 407.596 250.227 408.876 253.96C410.209 257.64 412.316 260.44 415.196 262.36C418.129 264.28 422.022 265.24 426.876 265.24C428.422 265.24 429.916 265.16 431.356 265C432.796 264.84 434.076 264.6 435.196 264.28V251.4C435.196 249.8 434.876 248.627 434.236 247.88C433.649 247.08 432.849 246.573 431.836 246.36C430.876 246.093 429.809 245.96 428.636 245.96H428.316V242.6H449.116V245.96H448.796C447.782 245.96 446.849 246.093 445.996 246.36C445.196 246.627 444.529 247.16 443.996 247.96C443.516 248.76 443.276 250.013 443.276 251.72V266.12C440.609 267.347 437.862 268.28 435.036 268.92C432.209 269.507 429.062 269.8 425.596 269.8ZM461.665 269V265.64H462.705C463.932 265.64 465.025 265.507 465.985 265.24C466.998 264.973 467.798 264.44 468.385 263.64C468.972 262.787 469.265 261.533 469.265 259.88V221C469.265 219.293 468.972 218.04 468.385 217.24C467.798 216.44 466.998 215.907 465.985 215.64C465.025 215.373 463.932 215.24 462.705 215.24H461.665V211.88H484.945V215.24H483.905C482.732 215.24 481.638 215.373 480.625 215.64C479.612 215.907 478.812 216.44 478.225 217.24C477.638 218.04 477.345 219.293 477.345 221V259.88C477.345 261.533 477.638 262.787 478.225 263.64C478.812 264.44 479.612 264.973 480.625 265.24C481.638 265.507 482.732 265.64 483.905 265.64H484.945V269H461.665ZM496 269V265.64H497.52C498.587 265.64 499.44 265.48 500.08 265.16C500.72 264.84 501.307 264.227 501.84 263.32C502.373 262.413 502.96 261.107 503.6 259.4L521.36 211.88H527.6L545.68 261.4C546.107 262.52 546.56 263.4 547.04 264.04C547.52 264.627 548.107 265.053 548.8 265.32C549.493 265.533 550.347 265.64 551.36 265.64H552.4V269H530.4V265.64H532.24C533.84 265.64 535.04 265.347 535.84 264.76C536.64 264.12 537.04 263.133 537.04 261.8C537.04 261.48 537.013 261.187 536.96 260.92C536.907 260.6 536.827 260.28 536.72 259.96C536.667 259.587 536.56 259.213 536.4 258.84L533.2 249.88H512.16L509.12 258.28C508.96 258.707 508.827 259.133 508.72 259.56C508.613 259.987 508.533 260.387 508.48 260.76C508.427 261.08 508.4 261.4 508.4 261.72C508.4 263.053 508.827 264.04 509.68 264.68C510.587 265.32 511.92 265.64 513.68 265.64H515.52V269H496ZM513.68 245.88H531.76L526.8 231.88C526.267 230.28 525.733 228.76 525.2 227.32C524.72 225.88 524.267 224.493 523.84 223.16C523.467 221.827 523.12 220.52 522.8 219.24C522.533 220.52 522.213 221.773 521.84 223C521.52 224.173 521.147 225.427 520.72 226.76C520.293 228.04 519.76 229.507 519.12 231.16L513.68 245.88Z" fill="#286523"/>
<path d="M7.112 345.28C6.08533 345.28 5.19867 345.177 4.452 344.972C3.70533 344.767 3.08933 344.487 2.604 344.132C2.13733 343.759 1.78267 343.339 1.54 342.872C1.316 342.387 1.204 341.873 1.204 341.332C1.204 340.884 1.30667 340.501 1.512 340.184C1.71733 339.867 1.988 339.633 2.324 339.484C2.67867 339.316 3.08933 339.232 3.556 339.232C3.59333 340.091 3.752 340.865 4.032 341.556C4.33067 342.247 4.76 342.797 5.32 343.208C5.88 343.6 6.58 343.796 7.42 343.796C8.61467 343.796 9.548 343.497 10.22 342.9C10.892 342.303 11.228 341.481 11.228 340.436C11.228 339.764 11.0787 339.195 10.78 338.728C10.5 338.261 10.0333 337.832 9.38 337.44C8.72667 337.029 7.85867 336.6 6.776 336.152C5.58133 335.648 4.592 335.107 3.808 334.528C3.04267 333.949 2.48267 333.287 2.128 332.54C1.77333 331.793 1.596 330.925 1.596 329.936C1.596 328.835 1.86667 327.901 2.408 327.136C2.968 326.352 3.73333 325.755 4.704 325.344C5.67467 324.933 6.76667 324.728 7.98 324.728C9.17467 324.728 10.1733 324.887 10.976 325.204C11.7973 325.503 12.4133 325.895 12.824 326.38C13.2533 326.865 13.468 327.388 13.468 327.948C13.468 328.564 13.244 329.04 12.796 329.376C12.3667 329.712 11.732 329.88 10.892 329.88C10.892 329.301 10.7893 328.732 10.584 328.172C10.3787 327.612 10.0427 327.155 9.576 326.8C9.128 326.427 8.52133 326.24 7.756 326.24C6.748 326.24 5.95467 326.511 5.376 327.052C4.816 327.575 4.536 328.293 4.536 329.208C4.536 329.899 4.66667 330.487 4.928 330.972C5.18933 331.457 5.64667 331.905 6.3 332.316C6.95333 332.727 7.84933 333.165 8.988 333.632C10.1453 334.099 11.116 334.612 11.9 335.172C12.684 335.732 13.272 336.367 13.664 337.076C14.056 337.767 14.252 338.588 14.252 339.54C14.252 340.735 13.9627 341.761 13.384 342.62C12.8053 343.46 11.9747 344.113 10.892 344.58C9.828 345.047 8.568 345.28 7.112 345.28ZM18.9466 345V343.712H19.3106C19.7026 343.712 20.0573 343.665 20.3746 343.572C20.7106 343.479 20.9813 343.301 21.1866 343.04C21.3919 342.76 21.4946 342.349 21.4946 341.808V333.156C21.4946 332.615 21.3919 332.213 21.1866 331.952C20.9813 331.672 20.7106 331.495 20.3746 331.42C20.0573 331.327 19.7026 331.28 19.3106 331.28H19.1426V329.992H24.6586V341.724C24.6586 342.284 24.7519 342.713 24.9386 343.012C25.1439 343.292 25.4146 343.479 25.7506 343.572C26.0866 343.665 26.4599 343.712 26.8706 343.712H27.2066V345H18.9466ZM22.9506 327.276C22.4279 327.276 21.9893 327.136 21.6346 326.856C21.2799 326.576 21.1026 326.109 21.1026 325.456C21.1026 324.784 21.2799 324.317 21.6346 324.056C21.9893 323.776 22.4279 323.636 22.9506 323.636C23.4546 323.636 23.8933 323.776 24.2666 324.056C24.6399 324.317 24.8266 324.784 24.8266 325.456C24.8266 326.109 24.6399 326.576 24.2666 326.856C23.8933 327.136 23.4546 327.276 22.9506 327.276ZM36.4761 345.28C35.4308 345.28 34.5441 345.159 33.8161 344.916C33.0881 344.673 32.5281 344.328 32.1361 343.88C31.7628 343.432 31.5761 342.891 31.5761 342.256C31.5761 341.733 31.6788 341.332 31.8841 341.052C32.1081 340.753 32.3695 340.548 32.6681 340.436C32.9855 340.324 33.2841 340.268 33.5641 340.268C33.5641 341.295 33.7975 342.144 34.2641 342.816C34.7495 343.488 35.5428 343.824 36.6441 343.824C37.6148 343.824 38.3428 343.6 38.8281 343.152C39.3321 342.704 39.5841 342.135 39.5841 341.444C39.5841 340.996 39.4815 340.632 39.2761 340.352C39.0708 340.053 38.7161 339.773 38.2121 339.512C37.7268 339.232 37.0455 338.915 36.1681 338.56C35.1788 338.149 34.3575 337.739 33.7041 337.328C33.0508 336.917 32.5655 336.441 32.2481 335.9C31.9308 335.359 31.7721 334.668 31.7721 333.828C31.7721 332.484 32.2761 331.467 33.2841 330.776C34.2921 330.067 35.6268 329.712 37.2881 329.712C38.2588 329.712 39.0615 329.833 39.6961 330.076C40.3308 330.319 40.8068 330.636 41.1241 331.028C41.4415 331.42 41.6001 331.849 41.6001 332.316C41.6001 332.857 41.4135 333.287 41.0401 333.604C40.6668 333.903 40.1161 334.052 39.3881 334.052C39.3881 333.119 39.1735 332.4 38.7441 331.896C38.3335 331.373 37.7268 331.112 36.9241 331.112C36.0468 331.112 35.4028 331.308 34.9921 331.7C34.6001 332.073 34.4041 332.577 34.4041 333.212C34.4041 333.884 34.6561 334.407 35.1601 334.78C35.6828 335.135 36.5788 335.555 37.8481 336.04C38.8375 336.432 39.6495 336.833 40.2841 337.244C40.9375 337.636 41.4228 338.112 41.7401 338.672C42.0575 339.232 42.2161 339.923 42.2161 340.744C42.2161 342.219 41.7028 343.348 40.6761 344.132C39.6495 344.897 38.2495 345.28 36.4761 345.28ZM52.9944 345.28C51.557 345.28 50.493 344.953 49.8024 344.3C49.1304 343.647 48.7944 342.517 48.7944 340.912V331.7H46.6944V330.468C47.105 330.468 47.525 330.384 47.9544 330.216C48.4024 330.048 48.7664 329.805 49.0464 329.488C49.3637 329.171 49.625 328.769 49.8304 328.284C50.0357 327.799 50.2037 327.22 50.3344 326.548H51.9864V329.992H55.6264V331.7H51.9864V340.884C51.9864 341.799 52.1637 342.471 52.5184 342.9C52.873 343.329 53.3677 343.544 54.0024 343.544C54.357 343.544 54.6837 343.525 54.9824 343.488C55.281 343.432 55.5797 343.376 55.8784 343.32V344.748C55.617 344.879 55.2157 345 54.6744 345.112C54.133 345.224 53.573 345.28 52.9944 345.28ZM67.5017 345.28C65.355 345.28 63.6937 344.608 62.5177 343.264C61.3417 341.92 60.7537 340.035 60.7537 337.608C60.7537 334.976 61.3137 332.997 62.4337 331.672C63.5723 330.347 65.1683 329.684 67.2217 329.684C69.107 329.684 70.591 330.253 71.6737 331.392C72.7563 332.512 73.2977 334.183 73.2977 336.404V337.72H64.0017C64.039 339.699 64.403 341.145 65.0937 342.06C65.7843 342.956 66.783 343.404 68.0897 343.404C69.0603 343.404 69.8723 343.199 70.5257 342.788C71.1977 342.359 71.6923 341.873 72.0097 341.332C72.1963 341.388 72.355 341.509 72.4857 341.696C72.6163 341.883 72.6817 342.107 72.6817 342.368C72.6817 342.779 72.495 343.208 72.1217 343.656C71.767 344.104 71.207 344.487 70.4417 344.804C69.6763 345.121 68.6963 345.28 67.5017 345.28ZM69.9657 336.124C69.9657 334.649 69.7603 333.483 69.3497 332.624C68.939 331.747 68.2203 331.308 67.1937 331.308C66.2603 331.308 65.523 331.719 64.9817 332.54C64.4403 333.361 64.1323 334.556 64.0577 336.124H69.9657ZM78.1102 345V343.712H78.4462C78.8755 343.712 79.2395 343.675 79.5382 343.6C79.8555 343.507 80.0982 343.32 80.2662 343.04C80.4528 342.741 80.5462 342.303 80.5462 341.724V333.128C80.5462 332.568 80.4528 332.157 80.2662 331.896C80.0982 331.635 79.8555 331.467 79.5382 331.392C79.2208 331.299 78.8568 331.252 78.4462 331.252H78.3622V329.992H83.2342L83.5982 332.176H83.7382C84.2608 331.205 84.8675 330.552 85.5582 330.216C86.2675 329.861 87.0982 329.684 88.0502 329.684C88.6662 329.684 89.2355 329.768 89.7582 329.936C90.2995 330.104 90.7662 330.365 91.1582 330.72C91.5688 331.075 91.8862 331.56 92.1102 332.176H92.3062C92.8288 331.205 93.4635 330.552 94.2102 330.216C94.9568 329.861 95.7968 329.684 96.7302 329.684C98.1862 329.684 99.3155 330.113 100.118 330.972C100.939 331.831 101.35 333.221 101.35 335.144V341.724C101.35 342.303 101.434 342.732 101.602 343.012C101.77 343.292 102.003 343.479 102.302 343.572C102.619 343.665 102.983 343.712 103.394 343.712H103.478V345H98.1582V335.48C98.1582 334.285 97.9528 333.352 97.5422 332.68C97.1502 332.008 96.4595 331.672 95.4702 331.672C94.7608 331.672 94.1915 331.859 93.7622 332.232C93.3328 332.605 93.0248 333.109 92.8382 333.744C92.6702 334.36 92.5862 335.041 92.5862 335.788V341.724C92.5862 342.303 92.6702 342.732 92.8382 343.012C93.0062 343.292 93.2395 343.479 93.5382 343.572C93.8555 343.665 94.2195 343.712 94.6302 343.712H94.7142V345H89.3942V335.48C89.3942 334.285 89.1982 333.352 88.8062 332.68C88.4142 332.008 87.7142 331.672 86.7062 331.672C85.9782 331.672 85.3902 331.877 84.9422 332.288C84.5128 332.699 84.1955 333.249 83.9902 333.94C83.8035 334.612 83.7102 335.349 83.7102 336.152V341.864C83.7102 342.405 83.8128 342.807 84.0182 343.068C84.2235 343.329 84.4848 343.507 84.8022 343.6C85.1382 343.675 85.5115 343.712 85.9222 343.712H86.0062V345H78.1102ZM112.774 345.28C111.952 345.28 111.206 345.121 110.534 344.804C109.88 344.468 109.358 343.964 108.966 343.292C108.592 342.62 108.406 341.78 108.406 340.772C108.406 339.26 108.928 338.149 109.974 337.44C111.038 336.731 112.634 336.339 114.762 336.264L117.086 336.18V334.556C117.086 333.865 117.03 333.277 116.918 332.792C116.806 332.288 116.572 331.896 116.218 331.616C115.882 331.336 115.368 331.196 114.678 331.196C114.062 331.196 113.576 331.327 113.222 331.588C112.886 331.831 112.652 332.185 112.522 332.652C112.41 333.1 112.354 333.623 112.354 334.22C111.439 334.22 110.748 334.089 110.282 333.828C109.815 333.548 109.582 333.081 109.582 332.428C109.582 331.756 109.824 331.224 110.31 330.832C110.795 330.421 111.439 330.132 112.242 329.964C113.044 329.777 113.922 329.684 114.874 329.684C116.666 329.684 118.01 330.048 118.906 330.776C119.802 331.485 120.25 332.727 120.25 334.5V341.724C120.25 342.247 120.306 342.648 120.418 342.928C120.53 343.208 120.707 343.413 120.95 343.544C121.211 343.656 121.547 343.712 121.958 343.712H122.07V345H117.814L117.31 342.76H117.086C116.675 343.264 116.283 343.712 115.91 344.104C115.555 344.477 115.135 344.767 114.65 344.972C114.164 345.177 113.539 345.28 112.774 345.28ZM113.726 343.432C114.416 343.432 115.004 343.283 115.49 342.984C115.994 342.667 116.386 342.228 116.666 341.668C116.946 341.089 117.086 340.417 117.086 339.652V337.44L115.462 337.524C114.51 337.561 113.754 337.72 113.194 338C112.652 338.261 112.26 338.635 112.018 339.12C111.794 339.605 111.682 340.203 111.682 340.912C111.682 341.472 111.756 341.939 111.906 342.312C112.055 342.685 112.279 342.965 112.578 343.152C112.876 343.339 113.259 343.432 113.726 343.432ZM147.465 345.28C145.262 345.28 143.423 344.851 141.949 343.992C140.493 343.133 139.401 341.939 138.673 340.408C137.963 338.859 137.609 337.048 137.609 334.976C137.609 332.96 137.982 331.187 138.729 329.656C139.494 328.107 140.623 326.903 142.117 326.044C143.61 325.167 145.449 324.728 147.633 324.728C149.07 324.728 150.265 324.868 151.217 325.148C152.169 325.428 152.887 325.811 153.373 326.296C153.858 326.763 154.101 327.295 154.101 327.892C154.101 328.508 153.83 329.012 153.289 329.404C152.747 329.796 152.038 329.992 151.161 329.992C151.161 329.357 151.039 328.76 150.797 328.2C150.554 327.64 150.162 327.192 149.621 326.856C149.098 326.501 148.398 326.324 147.521 326.324C146.027 326.324 144.814 326.66 143.881 327.332C142.966 328.004 142.294 328.984 141.865 330.272C141.454 331.56 141.249 333.128 141.249 334.976C141.249 336.824 141.463 338.392 141.893 339.68C142.341 340.949 143.05 341.92 144.021 342.592C144.991 343.245 146.289 343.572 147.913 343.572C148.398 343.572 148.865 343.553 149.313 343.516C149.761 343.46 150.171 343.385 150.545 343.292V338.924C150.545 338.383 150.442 337.972 150.237 337.692C150.05 337.412 149.789 337.225 149.453 337.132C149.135 337.039 148.762 336.992 148.333 336.992H148.165V335.704H155.865V336.992H155.725C155.37 336.992 155.053 337.048 154.773 337.16C154.511 337.253 154.297 337.449 154.129 337.748C153.979 338.028 153.905 338.457 153.905 339.036V343.908C152.915 344.375 151.907 344.72 150.881 344.944C149.854 345.168 148.715 345.28 147.465 345.28ZM167.552 345.28C165.406 345.28 163.744 344.608 162.568 343.264C161.392 341.92 160.804 340.035 160.804 337.608C160.804 334.976 161.364 332.997 162.484 331.672C163.623 330.347 165.219 329.684 167.272 329.684C169.158 329.684 170.642 330.253 171.724 331.392C172.807 332.512 173.348 334.183 173.348 336.404V337.72H164.052C164.09 339.699 164.454 341.145 165.144 342.06C165.835 342.956 166.834 343.404 168.14 343.404C169.111 343.404 169.923 343.199 170.576 342.788C171.248 342.359 171.743 341.873 172.06 341.332C172.247 341.388 172.406 341.509 172.536 341.696C172.667 341.883 172.732 342.107 172.732 342.368C172.732 342.779 172.546 343.208 172.172 343.656C171.818 344.104 171.258 344.487 170.492 344.804C169.727 345.121 168.747 345.28 167.552 345.28ZM170.016 336.124C170.016 334.649 169.811 333.483 169.4 332.624C168.99 331.747 168.271 331.308 167.244 331.308C166.311 331.308 165.574 331.719 165.032 332.54C164.491 333.361 164.183 334.556 164.108 336.124H170.016ZM183.509 345.28C182.464 345.28 181.577 345.159 180.849 344.916C180.121 344.673 179.561 344.328 179.169 343.88C178.796 343.432 178.609 342.891 178.609 342.256C178.609 341.733 178.712 341.332 178.917 341.052C179.141 340.753 179.402 340.548 179.701 340.436C180.018 340.324 180.317 340.268 180.597 340.268C180.597 341.295 180.83 342.144 181.297 342.816C181.782 343.488 182.576 343.824 183.677 343.824C184.648 343.824 185.376 343.6 185.861 343.152C186.365 342.704 186.617 342.135 186.617 341.444C186.617 340.996 186.514 340.632 186.309 340.352C186.104 340.053 185.749 339.773 185.245 339.512C184.76 339.232 184.078 338.915 183.201 338.56C182.212 338.149 181.39 337.739 180.737 337.328C180.084 336.917 179.598 336.441 179.281 335.9C178.964 335.359 178.805 334.668 178.805 333.828C178.805 332.484 179.309 331.467 180.317 330.776C181.325 330.067 182.66 329.712 184.321 329.712C185.292 329.712 186.094 329.833 186.729 330.076C187.364 330.319 187.84 330.636 188.157 331.028C188.474 331.42 188.633 331.849 188.633 332.316C188.633 332.857 188.446 333.287 188.073 333.604C187.7 333.903 187.149 334.052 186.421 334.052C186.421 333.119 186.206 332.4 185.777 331.896C185.366 331.373 184.76 331.112 183.957 331.112C183.08 331.112 182.436 331.308 182.025 331.7C181.633 332.073 181.437 332.577 181.437 333.212C181.437 333.884 181.689 334.407 182.193 334.78C182.716 335.135 183.612 335.555 184.881 336.04C185.87 336.432 186.682 336.833 187.317 337.244C187.97 337.636 188.456 338.112 188.773 338.672C189.09 339.232 189.249 339.923 189.249 340.744C189.249 342.219 188.736 343.348 187.709 344.132C186.682 344.897 185.282 345.28 183.509 345.28ZM200.027 345.28C198.59 345.28 197.526 344.953 196.835 344.3C196.163 343.647 195.827 342.517 195.827 340.912V331.7H193.727V330.468C194.138 330.468 194.558 330.384 194.987 330.216C195.435 330.048 195.799 329.805 196.079 329.488C196.397 329.171 196.658 328.769 196.863 328.284C197.069 327.799 197.237 327.22 197.367 326.548H199.019V329.992H202.659V331.7H199.019V340.884C199.019 341.799 199.197 342.471 199.551 342.9C199.906 343.329 200.401 343.544 201.035 343.544C201.39 343.544 201.717 343.525 202.015 343.488C202.314 343.432 202.613 343.376 202.911 343.32V344.748C202.65 344.879 202.249 345 201.707 345.112C201.166 345.224 200.606 345.28 200.027 345.28ZM206.918 345V343.712H207.282C207.674 343.712 208.029 343.665 208.346 343.572C208.682 343.479 208.953 343.301 209.158 343.04C209.364 342.76 209.466 342.349 209.466 341.808V333.156C209.466 332.615 209.364 332.213 209.158 331.952C208.953 331.672 208.682 331.495 208.346 331.42C208.029 331.327 207.674 331.28 207.282 331.28H207.114V329.992H212.63V341.724C212.63 342.284 212.724 342.713 212.91 343.012C213.116 343.292 213.386 343.479 213.722 343.572C214.058 343.665 214.432 343.712 214.842 343.712H215.178V345H206.918ZM210.922 327.276C210.4 327.276 209.961 327.136 209.606 326.856C209.252 326.576 209.074 326.109 209.074 325.456C209.074 324.784 209.252 324.317 209.606 324.056C209.961 323.776 210.4 323.636 210.922 323.636C211.426 323.636 211.865 323.776 212.238 324.056C212.612 324.317 212.798 324.784 212.798 325.456C212.798 326.109 212.612 326.576 212.238 326.856C211.865 327.136 211.426 327.276 210.922 327.276ZM226.604 345.28C224.513 345.28 222.861 344.636 221.648 343.348C220.453 342.06 219.856 340.1 219.856 337.468C219.856 334.836 220.435 332.885 221.592 331.616C222.749 330.328 224.448 329.684 226.688 329.684C228.779 329.684 230.421 330.328 231.616 331.616C232.829 332.885 233.436 334.836 233.436 337.468C233.436 340.1 232.857 342.06 231.7 343.348C230.543 344.636 228.844 345.28 226.604 345.28ZM226.66 343.712C227.519 343.712 228.209 343.479 228.732 343.012C229.255 342.545 229.619 341.845 229.824 340.912C230.048 339.96 230.16 338.812 230.16 337.468C230.16 335.396 229.889 333.847 229.348 332.82C228.825 331.793 227.92 331.28 226.632 331.28C225.344 331.28 224.439 331.793 223.916 332.82C223.393 333.847 223.132 335.396 223.132 337.468C223.132 339.521 223.393 341.08 223.916 342.144C224.457 343.189 225.372 343.712 226.66 343.712ZM225.372 327.668C225.652 327.313 225.951 326.893 226.268 326.408C226.585 325.923 226.884 325.428 227.164 324.924C227.463 324.42 227.705 323.963 227.892 323.552H231.364V323.832C231.196 324.075 230.935 324.383 230.58 324.756C230.225 325.129 229.824 325.521 229.376 325.932C228.928 326.343 228.471 326.735 228.004 327.108C227.537 327.463 227.108 327.771 226.716 328.032H225.372V327.668ZM238.388 345V343.712H238.612C239.042 343.712 239.415 343.675 239.732 343.6C240.068 343.507 240.33 343.32 240.516 343.04C240.722 342.741 240.824 342.303 240.824 341.724V333.156C240.824 332.596 240.731 332.185 240.544 331.924C240.358 331.663 240.096 331.495 239.76 331.42C239.443 331.327 239.079 331.28 238.668 331.28H238.528V329.992H243.512L243.876 332.176H244.016C244.558 331.224 245.174 330.571 245.864 330.216C246.574 329.861 247.404 329.684 248.356 329.684C249.85 329.684 250.998 330.113 251.8 330.972C252.622 331.831 253.032 333.221 253.032 335.144V341.724C253.032 342.303 253.116 342.732 253.284 343.012C253.452 343.292 253.686 343.479 253.984 343.572C254.283 343.665 254.638 343.712 255.048 343.712H255.188V345H249.868V335.48C249.868 334.285 249.663 333.352 249.252 332.68C248.842 332.008 248.123 331.672 247.096 331.672C246.331 331.672 245.715 331.877 245.248 332.288C244.8 332.699 244.474 333.249 244.268 333.94C244.082 334.612 243.988 335.349 243.988 336.152V341.864C243.988 342.405 244.082 342.807 244.268 343.068C244.474 343.329 244.735 343.507 245.052 343.6C245.37 343.675 245.734 343.712 246.144 343.712H246.284V345H238.388ZM269.807 345V343.712H270.367C270.759 343.712 271.105 343.665 271.403 343.572C271.721 343.479 271.973 343.301 272.159 343.04C272.346 342.76 272.439 342.359 272.439 341.836V328.2C272.439 327.659 272.346 327.257 272.159 326.996C271.973 326.716 271.721 326.529 271.403 326.436C271.105 326.343 270.759 326.296 270.367 326.296H269.807V325.008H278.459V326.296H277.871C277.498 326.296 277.153 326.343 276.835 326.436C276.518 326.529 276.266 326.716 276.079 326.996C275.893 327.257 275.799 327.659 275.799 328.2V341.836C275.799 342.359 275.893 342.76 276.079 343.04C276.266 343.301 276.518 343.479 276.835 343.572C277.153 343.665 277.498 343.712 277.871 343.712H278.459V345H269.807ZM282.909 345V343.712H283.133C283.563 343.712 283.936 343.675 284.253 343.6C284.589 343.507 284.851 343.32 285.037 343.04C285.243 342.741 285.345 342.303 285.345 341.724V333.156C285.345 332.596 285.252 332.185 285.065 331.924C284.879 331.663 284.617 331.495 284.281 331.42C283.964 331.327 283.6 331.28 283.189 331.28H283.049V329.992H288.033L288.397 332.176H288.537C289.079 331.224 289.695 330.571 290.385 330.216C291.095 329.861 291.925 329.684 292.877 329.684C294.371 329.684 295.519 330.113 296.321 330.972C297.143 331.831 297.553 333.221 297.553 335.144V341.724C297.553 342.303 297.637 342.732 297.805 343.012C297.973 343.292 298.207 343.479 298.505 343.572C298.804 343.665 299.159 343.712 299.569 343.712H299.709V345H294.389V335.48C294.389 334.285 294.184 333.352 293.773 332.68C293.363 332.008 292.644 331.672 291.617 331.672C290.852 331.672 290.236 331.877 289.769 332.288C289.321 332.699 288.995 333.249 288.789 333.94C288.603 334.612 288.509 335.349 288.509 336.152V341.864C288.509 342.405 288.603 342.807 288.789 343.068C288.995 343.329 289.256 343.507 289.573 343.6C289.891 343.675 290.255 343.712 290.665 343.712H290.805V345H282.909ZM305.487 332.708C305.356 332.316 305.198 332.017 305.011 331.812C304.843 331.607 304.628 331.467 304.367 331.392C304.124 331.317 303.807 331.28 303.415 331.28V329.992H310.919V331.28H310.415C309.892 331.28 309.5 331.383 309.239 331.588C308.978 331.775 308.847 332.083 308.847 332.512C308.847 332.661 308.866 332.829 308.903 333.016C308.959 333.184 309.015 333.371 309.071 333.576L310.975 338.868C311.124 339.279 311.274 339.727 311.423 340.212C311.591 340.697 311.731 341.164 311.843 341.612C311.974 342.041 312.086 342.424 312.179 342.76C312.254 342.368 312.422 341.845 312.683 341.192C312.944 340.52 313.178 339.885 313.383 339.288L315.371 333.772C315.464 333.548 315.53 333.333 315.567 333.128C315.604 332.904 315.623 332.699 315.623 332.512C315.623 332.083 315.483 331.775 315.203 331.588C314.923 331.383 314.494 331.28 313.915 331.28H313.635V329.992H319.683V331.28H319.263C318.946 331.28 318.675 331.336 318.451 331.448C318.227 331.56 318.022 331.775 317.835 332.092C317.648 332.391 317.452 332.829 317.247 333.408L312.935 345H309.967L305.487 332.708ZM330.74 345.28C328.593 345.28 326.932 344.608 325.756 343.264C324.58 341.92 323.992 340.035 323.992 337.608C323.992 334.976 324.552 332.997 325.672 331.672C326.811 330.347 328.407 329.684 330.46 329.684C332.345 329.684 333.829 330.253 334.912 331.392C335.995 332.512 336.536 334.183 336.536 336.404V337.72H327.24C327.277 339.699 327.641 341.145 328.332 342.06C329.023 342.956 330.021 343.404 331.328 343.404C332.299 343.404 333.111 343.199 333.764 342.788C334.436 342.359 334.931 341.873 335.248 341.332C335.435 341.388 335.593 341.509 335.724 341.696C335.855 341.883 335.92 342.107 335.92 342.368C335.92 342.779 335.733 343.208 335.36 343.656C335.005 344.104 334.445 344.487 333.68 344.804C332.915 345.121 331.935 345.28 330.74 345.28ZM333.204 336.124C333.204 334.649 332.999 333.483 332.588 332.624C332.177 331.747 331.459 331.308 330.432 331.308C329.499 331.308 328.761 331.719 328.22 332.54C327.679 333.361 327.371 334.556 327.296 336.124H333.204ZM341.348 345V343.712H341.572C342.002 343.712 342.375 343.675 342.692 343.6C343.028 343.507 343.29 343.32 343.476 343.04C343.682 342.741 343.784 342.303 343.784 341.724V333.156C343.784 332.596 343.691 332.185 343.504 331.924C343.318 331.663 343.056 331.495 342.72 331.42C342.403 331.327 342.039 331.28 341.628 331.28H341.488V329.992H346.472L346.836 332.176H346.976C347.518 331.224 348.134 330.571 348.824 330.216C349.534 329.861 350.364 329.684 351.316 329.684C352.81 329.684 353.958 330.113 354.76 330.972C355.582 331.831 355.992 333.221 355.992 335.144V341.724C355.992 342.303 356.076 342.732 356.244 343.012C356.412 343.292 356.646 343.479 356.944 343.572C357.243 343.665 357.598 343.712 358.008 343.712H358.148V345H352.828V335.48C352.828 334.285 352.623 333.352 352.212 332.68C351.802 332.008 351.083 331.672 350.056 331.672C349.291 331.672 348.675 331.877 348.208 332.288C347.76 332.699 347.434 333.249 347.228 333.94C347.042 334.612 346.948 335.349 346.948 336.152V341.864C346.948 342.405 347.042 342.807 347.228 343.068C347.434 343.329 347.695 343.507 348.012 343.6C348.33 343.675 348.694 343.712 349.104 343.712H349.244V345H341.348ZM368.574 345.28C367.137 345.28 366.073 344.953 365.382 344.3C364.71 343.647 364.374 342.517 364.374 340.912V331.7H362.274V330.468C362.685 330.468 363.105 330.384 363.534 330.216C363.982 330.048 364.346 329.805 364.626 329.488C364.943 329.171 365.205 328.769 365.41 328.284C365.615 327.799 365.783 327.22 365.914 326.548H367.566V329.992H371.206V331.7H367.566V340.884C367.566 341.799 367.743 342.471 368.098 342.9C368.453 343.329 368.947 343.544 369.582 343.544C369.937 343.544 370.263 343.525 370.562 343.488C370.861 343.432 371.159 343.376 371.458 343.32V344.748C371.197 344.879 370.795 345 370.254 345.112C369.713 345.224 369.153 345.28 368.574 345.28ZM380.589 345.28C379.768 345.28 379.021 345.121 378.349 344.804C377.696 344.468 377.173 343.964 376.781 343.292C376.408 342.62 376.221 341.78 376.221 340.772C376.221 339.26 376.744 338.149 377.789 337.44C378.853 336.731 380.449 336.339 382.577 336.264L384.901 336.18V334.556C384.901 333.865 384.845 333.277 384.733 332.792C384.621 332.288 384.388 331.896 384.033 331.616C383.697 331.336 383.184 331.196 382.493 331.196C381.877 331.196 381.392 331.327 381.037 331.588C380.701 331.831 380.468 332.185 380.337 332.652C380.225 333.1 380.169 333.623 380.169 334.22C379.255 334.22 378.564 334.089 378.097 333.828C377.631 333.548 377.397 333.081 377.397 332.428C377.397 331.756 377.64 331.224 378.125 330.832C378.611 330.421 379.255 330.132 380.057 329.964C380.86 329.777 381.737 329.684 382.689 329.684C384.481 329.684 385.825 330.048 386.721 330.776C387.617 331.485 388.065 332.727 388.065 334.5V341.724C388.065 342.247 388.121 342.648 388.233 342.928C388.345 343.208 388.523 343.413 388.765 343.544C389.027 343.656 389.363 343.712 389.773 343.712H389.885V345H385.629L385.125 342.76H384.901C384.491 343.264 384.099 343.712 383.725 344.104C383.371 344.477 382.951 344.767 382.465 344.972C381.98 345.177 381.355 345.28 380.589 345.28ZM381.541 343.432C382.232 343.432 382.82 343.283 383.305 342.984C383.809 342.667 384.201 342.228 384.481 341.668C384.761 341.089 384.901 340.417 384.901 339.652V337.44L383.277 337.524C382.325 337.561 381.569 337.72 381.009 338C380.468 338.261 380.076 338.635 379.833 339.12C379.609 339.605 379.497 340.203 379.497 340.912C379.497 341.472 379.572 341.939 379.721 342.312C379.871 342.685 380.095 342.965 380.393 343.152C380.692 343.339 381.075 343.432 381.541 343.432ZM394.595 345V343.712H394.679C395.108 343.712 395.491 343.665 395.827 343.572C396.163 343.479 396.424 343.292 396.611 343.012C396.816 342.713 396.919 342.275 396.919 341.696V333.184C396.919 332.624 396.816 332.213 396.611 331.952C396.424 331.672 396.163 331.495 395.827 331.42C395.509 331.327 395.145 331.28 394.735 331.28H394.623V329.992H399.355L399.915 332.736H400.055C400.316 332.139 400.596 331.616 400.895 331.168C401.193 330.701 401.585 330.337 402.071 330.076C402.556 329.815 403.2 329.684 404.003 329.684C405.048 329.684 405.813 329.88 406.299 330.272C406.784 330.664 407.027 331.196 407.027 331.868C407.027 332.54 406.793 333.072 406.327 333.464C405.86 333.856 405.132 334.052 404.143 334.052C404.143 333.287 404.031 332.727 403.807 332.372C403.601 331.999 403.228 331.812 402.687 331.812C402.201 331.812 401.791 332.008 401.455 332.4C401.119 332.773 400.848 333.259 400.643 333.856C400.456 334.435 400.316 335.051 400.223 335.704C400.129 336.357 400.083 336.955 400.083 337.496V341.836C400.083 342.377 400.185 342.788 400.391 343.068C400.596 343.329 400.857 343.507 401.175 343.6C401.511 343.675 401.875 343.712 402.267 343.712H403.107V345H394.595ZM410.843 345V343.712H411.207C411.599 343.712 411.953 343.665 412.271 343.572C412.607 343.479 412.877 343.301 413.083 343.04C413.288 342.76 413.391 342.349 413.391 341.808V333.156C413.391 332.615 413.288 332.213 413.083 331.952C412.877 331.672 412.607 331.495 412.271 331.42C411.953 331.327 411.599 331.28 411.207 331.28H411.039V329.992H416.555V341.724C416.555 342.284 416.648 342.713 416.835 343.012C417.04 343.292 417.311 343.479 417.647 343.572C417.983 343.665 418.356 343.712 418.767 343.712H419.103V345H410.843ZM414.847 327.276C414.324 327.276 413.885 327.136 413.531 326.856C413.176 326.576 412.999 326.109 412.999 325.456C412.999 324.784 413.176 324.317 413.531 324.056C413.885 323.776 414.324 323.636 414.847 323.636C415.351 323.636 415.789 323.776 416.163 324.056C416.536 324.317 416.723 324.784 416.723 325.456C416.723 326.109 416.536 326.576 416.163 326.856C415.789 327.136 415.351 327.276 414.847 327.276ZM430.528 345.28C428.438 345.28 426.786 344.636 425.572 343.348C424.378 342.06 423.78 340.1 423.78 337.468C423.78 334.836 424.359 332.885 425.516 331.616C426.674 330.328 428.372 329.684 430.612 329.684C432.703 329.684 434.346 330.328 435.54 331.616C436.754 332.885 437.36 334.836 437.36 337.468C437.36 340.1 436.782 342.06 435.624 343.348C434.467 344.636 432.768 345.28 430.528 345.28ZM430.584 343.712C431.443 343.712 432.134 343.479 432.656 343.012C433.179 342.545 433.543 341.845 433.748 340.912C433.972 339.96 434.084 338.812 434.084 337.468C434.084 335.396 433.814 333.847 433.272 332.82C432.75 331.793 431.844 331.28 430.556 331.28C429.268 331.28 428.363 331.793 427.84 332.82C427.318 333.847 427.056 335.396 427.056 337.468C427.056 339.521 427.318 341.08 427.84 342.144C428.382 343.189 429.296 343.712 430.584 343.712ZM451.714 345V343.712H452.19C452.545 343.712 452.843 343.665 453.086 343.572C453.329 343.46 453.543 343.245 453.73 342.928C453.935 342.611 454.141 342.163 454.346 341.584L460.534 325.008H463.25L469.466 342.172C469.615 342.564 469.783 342.872 469.97 343.096C470.157 343.32 470.371 343.479 470.614 343.572C470.875 343.665 471.174 343.712 471.51 343.712H471.874V345H463.67V343.712H464.398C464.902 343.712 465.294 343.619 465.574 343.432C465.854 343.227 465.994 342.909 465.994 342.48C465.994 342.349 465.975 342.228 465.938 342.116C465.919 341.985 465.891 341.864 465.854 341.752C465.835 341.621 465.798 341.491 465.742 341.36L464.678 338.336H457.482L456.502 341.108C456.446 341.257 456.399 341.416 456.362 341.584C456.325 341.752 456.287 341.911 456.25 342.06C456.231 342.191 456.222 342.321 456.222 342.452C456.222 342.881 456.362 343.199 456.642 343.404C456.922 343.609 457.351 343.712 457.93 343.712H458.714V345H451.714ZM458.042 336.852H464.146L462.438 331.868C462.27 331.345 462.102 330.851 461.934 330.384C461.766 329.899 461.617 329.432 461.486 328.984C461.355 328.536 461.243 328.088 461.15 327.64C461.057 328.088 460.945 328.517 460.814 328.928C460.702 329.339 460.571 329.768 460.422 330.216C460.291 330.645 460.123 331.121 459.918 331.644L458.042 336.852ZM475.058 345V343.712H475.422C475.832 343.712 476.196 343.665 476.514 343.572C476.85 343.479 477.111 343.292 477.298 343.012C477.503 342.713 477.606 342.284 477.606 341.724V326.828C477.606 326.287 477.494 325.885 477.27 325.624C477.064 325.363 476.794 325.195 476.458 325.12C476.122 325.045 475.776 325.008 475.422 325.008H475.058V323.72H480.798V341.724C480.798 342.284 480.891 342.713 481.078 343.012C481.283 343.292 481.554 343.479 481.89 343.572C482.226 343.665 482.59 343.712 482.982 343.712H483.346V345H475.058ZM487.244 345V343.712H487.58C488.009 343.712 488.373 343.675 488.672 343.6C488.989 343.507 489.232 343.32 489.4 343.04C489.586 342.741 489.68 342.303 489.68 341.724V333.128C489.68 332.568 489.586 332.157 489.4 331.896C489.232 331.635 488.989 331.467 488.672 331.392C488.354 331.299 487.99 331.252 487.58 331.252H487.496V329.992H492.368L492.732 332.176H492.872C493.394 331.205 494.001 330.552 494.692 330.216C495.401 329.861 496.232 329.684 497.184 329.684C497.8 329.684 498.369 329.768 498.892 329.936C499.433 330.104 499.9 330.365 500.292 330.72C500.702 331.075 501.02 331.56 501.244 332.176H501.44C501.962 331.205 502.597 330.552 503.344 330.216C504.09 329.861 504.93 329.684 505.864 329.684C507.32 329.684 508.449 330.113 509.252 330.972C510.073 331.831 510.484 333.221 510.484 335.144V341.724C510.484 342.303 510.568 342.732 510.736 343.012C510.904 343.292 511.137 343.479 511.436 343.572C511.753 343.665 512.117 343.712 512.528 343.712H512.612V345H507.292V335.48C507.292 334.285 507.086 333.352 506.676 332.68C506.284 332.008 505.593 331.672 504.604 331.672C503.894 331.672 503.325 331.859 502.896 332.232C502.466 332.605 502.158 333.109 501.972 333.744C501.804 334.36 501.72 335.041 501.72 335.788V341.724C501.72 342.303 501.804 342.732 501.972 343.012C502.14 343.292 502.373 343.479 502.672 343.572C502.989 343.665 503.353 343.712 503.764 343.712H503.848V345H498.528V335.48C498.528 334.285 498.332 333.352 497.94 332.68C497.548 332.008 496.848 331.672 495.84 331.672C495.112 331.672 494.524 331.877 494.076 332.288C493.646 332.699 493.329 333.249 493.124 333.94C492.937 334.612 492.844 335.349 492.844 336.152V341.864C492.844 342.405 492.946 342.807 493.152 343.068C493.357 343.329 493.618 343.507 493.936 343.6C494.272 343.675 494.645 343.712 495.056 343.712H495.14V345H487.244ZM521.907 345.28C521.086 345.28 520.339 345.121 519.667 344.804C519.014 344.468 518.491 343.964 518.099 343.292C517.726 342.62 517.539 341.78 517.539 340.772C517.539 339.26 518.062 338.149 519.107 337.44C520.171 336.731 521.767 336.339 523.895 336.264L526.219 336.18V334.556C526.219 333.865 526.163 333.277 526.051 332.792C525.939 332.288 525.706 331.896 525.351 331.616C525.015 331.336 524.502 331.196 523.811 331.196C523.195 331.196 522.71 331.327 522.355 331.588C522.019 331.831 521.786 332.185 521.655 332.652C521.543 333.1 521.487 333.623 521.487 334.22C520.573 334.22 519.882 334.089 519.415 333.828C518.949 333.548 518.715 333.081 518.715 332.428C518.715 331.756 518.958 331.224 519.443 330.832C519.929 330.421 520.573 330.132 521.375 329.964C522.178 329.777 523.055 329.684 524.007 329.684C525.799 329.684 527.143 330.048 528.039 330.776C528.935 331.485 529.383 332.727 529.383 334.5V341.724C529.383 342.247 529.439 342.648 529.551 342.928C529.663 343.208 529.841 343.413 530.083 343.544C530.345 343.656 530.681 343.712 531.091 343.712H531.203V345H526.947L526.443 342.76H526.219C525.809 343.264 525.417 343.712 525.043 344.104C524.689 344.477 524.269 344.767 523.783 344.972C523.298 345.177 522.673 345.28 521.907 345.28ZM522.859 343.432C523.55 343.432 524.138 343.283 524.623 342.984C525.127 342.667 525.519 342.228 525.799 341.668C526.079 341.089 526.219 340.417 526.219 339.652V337.44L524.595 337.524C523.643 337.561 522.887 337.72 522.327 338C521.786 338.261 521.394 338.635 521.151 339.12C520.927 339.605 520.815 340.203 520.815 340.912C520.815 341.472 520.89 341.939 521.039 342.312C521.189 342.685 521.413 342.965 521.711 343.152C522.01 343.339 522.393 343.432 522.859 343.432ZM543.137 345.28C541.867 345.28 540.738 345.028 539.749 344.524C538.759 344.001 537.975 343.18 537.397 342.06C536.837 340.921 536.557 339.428 536.557 337.58C536.557 335.564 536.837 333.987 537.397 332.848C537.975 331.691 538.75 330.879 539.721 330.412C540.71 329.927 541.811 329.684 543.025 329.684C543.939 329.684 544.779 329.796 545.545 330.02C546.329 330.244 546.954 330.571 547.421 331C547.887 331.429 548.121 331.952 548.121 332.568C548.121 332.979 548.018 333.333 547.813 333.632C547.626 333.931 547.327 334.155 546.917 334.304C546.506 334.453 545.946 334.528 545.237 334.528C545.237 333.912 545.171 333.352 545.041 332.848C544.91 332.344 544.686 331.943 544.369 331.644C544.07 331.345 543.631 331.196 543.053 331.196C542.399 331.196 541.83 331.383 541.345 331.756C540.859 332.111 540.477 332.755 540.197 333.688C539.935 334.603 539.805 335.891 539.805 337.552C539.805 338.84 539.935 339.923 540.197 340.8C540.477 341.659 540.906 342.303 541.485 342.732C542.063 343.161 542.819 343.376 543.753 343.376C544.649 343.376 545.433 343.18 546.105 342.788C546.777 342.396 547.271 341.901 547.589 341.304C547.757 341.416 547.887 341.575 547.981 341.78C548.074 341.967 548.121 342.191 548.121 342.452C548.121 342.9 547.934 343.339 547.561 343.768C547.206 344.197 546.665 344.561 545.937 344.86C545.209 345.14 544.275 345.28 543.137 345.28ZM560.214 345.28C558.067 345.28 556.406 344.608 555.23 343.264C554.054 341.92 553.466 340.035 553.466 337.608C553.466 334.976 554.026 332.997 555.146 331.672C556.285 330.347 557.881 329.684 559.934 329.684C561.819 329.684 563.303 330.253 564.386 331.392C565.469 332.512 566.01 334.183 566.01 336.404V337.72H556.714C556.751 339.699 557.115 341.145 557.806 342.06C558.497 342.956 559.495 343.404 560.802 343.404C561.773 343.404 562.585 343.199 563.238 342.788C563.91 342.359 564.405 341.873 564.722 341.332C564.909 341.388 565.067 341.509 565.198 341.696C565.329 341.883 565.394 342.107 565.394 342.368C565.394 342.779 565.207 343.208 564.834 343.656C564.479 344.104 563.919 344.487 563.154 344.804C562.389 345.121 561.409 345.28 560.214 345.28ZM562.678 336.124C562.678 334.649 562.473 333.483 562.062 332.624C561.651 331.747 560.933 331.308 559.906 331.308C558.973 331.308 558.235 331.719 557.694 332.54C557.153 333.361 556.845 334.556 556.77 336.124H562.678ZM558.478 327.668C558.758 327.313 559.057 326.893 559.374 326.408C559.691 325.923 559.99 325.428 560.27 324.924C560.569 324.42 560.811 323.963 560.998 323.552H564.47V323.832C564.302 324.075 564.041 324.383 563.686 324.756C563.331 325.129 562.93 325.521 562.482 325.932C562.034 326.343 561.577 326.735 561.11 327.108C560.643 327.463 560.214 327.771 559.822 328.032H558.478V327.668ZM570.823 345V343.712H571.047C571.476 343.712 571.849 343.675 572.167 343.6C572.503 343.507 572.764 343.32 572.951 343.04C573.156 342.741 573.259 342.303 573.259 341.724V333.156C573.259 332.596 573.165 332.185 572.979 331.924C572.792 331.663 572.531 331.495 572.195 331.42C571.877 331.327 571.513 331.28 571.103 331.28H570.963V329.992H575.947L576.311 332.176H576.451C576.992 331.224 577.608 330.571 578.299 330.216C579.008 329.861 579.839 329.684 580.791 329.684C582.284 329.684 583.432 330.113 584.235 330.972C585.056 331.831 585.467 333.221 585.467 335.144V341.724C585.467 342.303 585.551 342.732 585.719 343.012C585.887 343.292 586.12 343.479 586.419 343.572C586.717 343.665 587.072 343.712 587.483 343.712H587.623V345H582.303V335.48C582.303 334.285 582.097 333.352 581.687 332.68C581.276 332.008 580.557 331.672 579.531 331.672C578.765 331.672 578.149 331.877 577.683 332.288C577.235 332.699 576.908 333.249 576.703 333.94C576.516 334.612 576.423 335.349 576.423 336.152V341.864C576.423 342.405 576.516 342.807 576.703 343.068C576.908 343.329 577.169 343.507 577.487 343.6C577.804 343.675 578.168 343.712 578.579 343.712H578.719V345H570.823Z" fill="#286523"/>
<defs>
<linearGradient id="paint0_linear_22_127" x1="118" y1="178.912" x2="118" y2="303.912" gradientUnits="userSpaceOnUse">
<stop offset="0.318131" stop-color="#00FF00"/>
<stop offset="0.938126" stop-color="#1B931B"/>
</linearGradient>
<linearGradient id="paint1_linear_22_127" x1="143" y1="63.9116" x2="132" y2="169.912" gradientUnits="userSpaceOnUse">
<stop stop-color="#2DF92D"/>
<stop offset="1" stop-color="#14A814"/>
</linearGradient>
<linearGradient id="paint2_linear_22_127" x1="235.844" y1="67.5782" x2="245.973" y2="169.639" gradientUnits="userSpaceOnUse">
<stop stop-color="#2DF92D"/>
<stop offset="1" stop-color="#14A814"/>
</linearGradient>
<linearGradient id="paint3_linear_22_127" x1="216.197" y1="182.245" x2="216.564" y2="198.91" gradientUnits="userSpaceOnUse">
<stop stop-color="#00FF00"/>
<stop offset="1" stop-color="#00CB00"/>
</linearGradient>
<linearGradient id="paint4_linear_22_127" x1="215.197" y1="235.167" x2="215.528" y2="250.999" gradientUnits="userSpaceOnUse">
<stop stop-color="#00FF00"/>
<stop offset="1" stop-color="#00CB00"/>
</linearGradient>
<linearGradient id="paint5_linear_22_127" x1="215.197" y1="287.245" x2="215.564" y2="303.91" gradientUnits="userSpaceOnUse">
<stop stop-color="#00FF00"/>
<stop offset="1" stop-color="#00CB00"/>
</linearGradient>
<linearGradient id="paint6_linear_22_127" x1="265.197" y1="182.245" x2="265.564" y2="198.91" gradientUnits="userSpaceOnUse">
<stop stop-color="#00FF00"/>
<stop offset="1" stop-color="#00CB00"/>
</linearGradient>
<linearGradient id="paint7_linear_22_127" x1="264.197" y1="235.167" x2="264.528" y2="250.999" gradientUnits="userSpaceOnUse">
<stop stop-color="#00FF00"/>
<stop offset="1" stop-color="#00CB00"/>
</linearGradient>
<linearGradient id="paint8_linear_22_127" x1="264.197" y1="287.245" x2="264.564" y2="303.91" gradientUnits="userSpaceOnUse">
<stop stop-color="#00FF00"/>
<stop offset="1" stop-color="#00CB00"/>
</linearGradient>
<linearGradient id="paint9_linear_22_127" x1="314.197" y1="182.245" x2="314.564" y2="198.91" gradientUnits="userSpaceOnUse">
<stop stop-color="#00FF00"/>
<stop offset="1" stop-color="#00CB00"/>
</linearGradient>
<linearGradient id="paint10_linear_22_127" x1="313.197" y1="235.167" x2="313.528" y2="250.999" gradientUnits="userSpaceOnUse">
<stop stop-color="#00FF00"/>
<stop offset="1" stop-color="#00CB00"/>
</linearGradient>
<linearGradient id="paint11_linear_22_127" x1="313.197" y1="287.245" x2="313.564" y2="303.91" gradientUnits="userSpaceOnUse">
<stop stop-color="#00FF00"/>
<stop offset="1" stop-color="#00CB00"/>
</linearGradient>
<linearGradient id="paint12_linear_22_127" x1="290.197" y1="208.245" x2="290.564" y2="224.91" gradientUnits="userSpaceOnUse">
<stop stop-color="#00FF00"/>
<stop offset="1" stop-color="#00CB00"/>
</linearGradient>
<linearGradient id="paint13_linear_22_127" x1="289.197" y1="261.245" x2="289.564" y2="277.91" gradientUnits="userSpaceOnUse">
<stop stop-color="#00FF00"/>
<stop offset="1" stop-color="#00CB00"/>
</linearGradient>
<linearGradient id="paint14_linear_22_127" x1="240.197" y1="208.245" x2="240.564" y2="224.91" gradientUnits="userSpaceOnUse">
<stop stop-color="#00FF00"/>
<stop offset="1" stop-color="#00CB00"/>
</linearGradient>
<linearGradient id="paint15_linear_22_127" x1="239.197" y1="261.245" x2="239.564" y2="277.91" gradientUnits="userSpaceOnUse">
<stop stop-color="#00FF00"/>
<stop offset="1" stop-color="#00CB00"/>
</linearGradient>
<linearGradient id="paint16_linear_22_127" x1="326.389" y1="208.245" x2="327.388" y2="224.858" gradientUnits="userSpaceOnUse">
<stop stop-color="#00FF00"/>
<stop offset="1" stop-color="#00CB00"/>
</linearGradient>
<linearGradient id="paint17_linear_22_127" x1="325.389" y1="261.245" x2="326.388" y2="277.858" gradientUnits="userSpaceOnUse">
<stop stop-color="#00FF00"/>
<stop offset="1" stop-color="#00CB00"/>
</linearGradient>
<linearGradient id="paint18_linear_22_127" x1="203.389" y1="208.245" x2="204.388" y2="224.858" gradientUnits="userSpaceOnUse">
<stop stop-color="#00FF00"/>
<stop offset="1" stop-color="#00CB00"/>
</linearGradient>
<linearGradient id="paint19_linear_22_127" x1="202.389" y1="261.245" x2="203.388" y2="277.858" gradientUnits="userSpaceOnUse">
<stop stop-color="#00FF00"/>
<stop offset="1" stop-color="#00CB00"/>
</linearGradient>
</defs>
</svg>
